<svg width="1042" height="422" viewBox="0 0 1042 422" fill="none" xmlns="http://www.w3.org/2000/svg">
<path d="M858.855 119.039H936.08V195.962H858.855V119.039Z" fill="url(#paint0_linear_1784_6703)" fill-opacity="0.02"/>
<path d="M1085.71 -480H1161V-405M1085.71 -480V-405M1085.71 -480H1010.41M1085.71 -405H1161M1085.71 -405H1010.41M1085.71 -405V-330M1161 -405V-330M1010.41 -480V-405M1010.41 -480H935.118M1010.41 -405H935.118M1010.41 -405V-330M935.118 -480V-405M935.118 -480H859.824M935.118 -405H859.824M935.118 -405V-330M859.824 -480V-405M859.824 -480H784.529M859.824 -405H784.529M859.824 -405V-330M784.529 -480V-405M784.529 -480H709.235M784.529 -405H709.235M784.529 -405V-330M709.235 -480V-405M709.235 -480H633.941M709.235 -405H633.941M709.235 -405V-330M633.941 -480V-405M633.941 -480H558.647M633.941 -405H558.647M633.941 -405V-330M558.647 -480V-405M558.647 -480H483.353M558.647 -405H483.353M558.647 -405V-330M483.353 -480V-405M483.353 -480H408.059M483.353 -405H408.059M483.353 -405V-330M408.059 -480V-405M408.059 -480H332.765M408.059 -405H332.765M408.059 -405V-330M332.765 -480V-405M332.765 -480H257.471M332.765 -405H257.471M332.765 -405V-330M257.471 -480V-405M257.471 -480H182.176M257.471 -405H182.176M257.471 -405V-330M182.176 -480V-405M182.176 -480H106.882M182.176 -405H106.882M182.176 -405V-330M106.882 -480V-405M106.882 -480H31.5882M106.882 -405H31.5882M106.882 -405V-330M31.5882 -480V-405M31.5882 -480H-43.706M31.5882 -405H-43.706M31.5882 -405V-330M-43.706 -480V-405M-43.706 -480H-119V-405M-43.706 -405H-119M-43.706 -405V-330M-119 -405V-330M1085.71 -330H1161M1085.71 -330H1010.41M1085.71 -330V-255M1161 -330V-255M1010.41 -330H935.118M1010.41 -330V-255M935.118 -330H859.824M935.118 -330V-255M859.824 -330H784.529M859.824 -330V-255M784.529 -330H709.235M784.529 -330V-255M709.235 -330H633.941M709.235 -330V-255M633.941 -330H558.647M633.941 -330V-255M558.647 -330H483.353M558.647 -330V-255M483.353 -330H408.059M483.353 -330V-255M408.059 -330H332.765M408.059 -330V-255M332.765 -330H257.471M332.765 -330V-255M257.471 -330H182.176M257.471 -330V-255M182.176 -330H106.882M182.176 -330V-255M106.882 -330H31.5882M106.882 -330V-255M31.5882 -330H-43.706M31.5882 -330V-255M-43.706 -330H-119M-43.706 -330V-255M-119 -330V-255M1085.71 -255H1161M1085.71 -255H1010.41M1085.71 -255V-180M1161 -255V-180M1010.41 -255H935.118M1010.41 -255V-180M935.118 -255H859.824M935.118 -255V-180M859.824 -255H784.529M859.824 -255V-180M784.529 -255H709.235M784.529 -255V-180M709.235 -255H633.941M709.235 -255V-180M633.941 -255H558.647M633.941 -255V-180M558.647 -255H483.353M558.647 -255V-180M483.353 -255H408.059M483.353 -255V-180M408.059 -255H332.765M408.059 -255V-180M332.765 -255H257.471M332.765 -255V-180M257.471 -255H182.176M257.471 -255V-180M182.176 -255H106.882M182.176 -255V-180M106.882 -255H31.5882M106.882 -255V-180M31.5882 -255H-43.706M31.5882 -255V-180M-43.706 -255H-119M-43.706 -255V-180M-119 -255V-180M1085.71 -180H1161M1085.71 -180H1010.41M1085.71 -180V-105M1161 -180V-105M1010.41 -180H935.118M1010.41 -180V-105M935.118 -180H859.824M935.118 -180V-105M859.824 -180H784.529M859.824 -180V-105M784.529 -180H709.235M784.529 -180V-105M709.235 -180H633.941M709.235 -180V-105M633.941 -180H558.647M633.941 -180V-105M558.647 -180H483.353M558.647 -180V-105M483.353 -180H408.059M483.353 -180V-105M408.059 -180H332.765M408.059 -180V-105M332.765 -180H257.471M332.765 -180V-105M257.471 -180H182.176M257.471 -180V-105M182.176 -180H106.882M182.176 -180V-105M106.882 -180H31.5882M106.882 -180V-105M31.5882 -180H-43.706M31.5882 -180V-105M-43.706 -180H-119M-43.706 -180V-105M-119 -180V-105M1085.71 -105H1161M1085.71 -105H1010.41M1085.71 -105V-30M1161 -105V-30M1010.41 -105H935.118M1010.41 -105V-30M935.118 -105H859.824M935.118 -105V-30M859.824 -105H784.529M859.824 -105V-30M784.529 -105H709.235M784.529 -105V-30M709.235 -105H633.941M709.235 -105V-30M633.941 -105H558.647M633.941 -105V-30M558.647 -105H483.353M558.647 -105V-30M483.353 -105H408.059M483.353 -105V-30M408.059 -105H332.765M408.059 -105V-30M332.765 -105H257.471M332.765 -105V-30M257.471 -105H182.176M257.471 -105V-30M182.176 -105H106.882M182.176 -105V-30M106.882 -105H31.5882M106.882 -105V-30M31.5882 -105H-43.706M31.5882 -105V-30M-43.706 -105H-119M-43.706 -105V-30M-119 -105V-30M1085.71 -30H1161M1085.71 -30H1010.41M1085.71 -30V45M1161 -30V45M1010.41 -30H935.118M1010.41 -30V45M935.118 -30H859.824M935.118 -30V45M859.824 -30H784.529M859.824 -30V45M784.529 -30H709.235M784.529 -30V45M709.235 -30H633.941M709.235 -30V45M633.941 -30H558.647M633.941 -30V45M558.647 -30H483.353M558.647 -30V45M483.353 -30H408.059M483.353 -30V45M408.059 -30H332.765M408.059 -30V45M332.765 -30H257.471M332.765 -30V45M257.471 -30H182.176M257.471 -30V45M182.176 -30H106.882M182.176 -30V45M106.882 -30H31.5882M106.882 -30V45M31.5882 -30H-43.706M31.5882 -30V45M-43.706 -30H-119M-43.706 -30V45M-119 -30V45M1085.71 45H1161M1085.71 45H1010.41M1085.71 45V120M1161 45V120M1010.41 45H935.118M1010.41 45V120M935.118 45H859.824M935.118 45V120M859.824 45H784.529M859.824 45V120M784.529 45H709.235M784.529 45V120M709.235 45H633.941M709.235 45V120M633.941 45H558.647M633.941 45V120M558.647 45H483.353M558.647 45V120M483.353 45H408.059M483.353 45V120M408.059 45H332.765M408.059 45V120M332.765 45H257.471M332.765 45V120M257.471 45H182.176M257.471 45V120M182.176 45H106.882M182.176 45V120M106.882 45H31.5882M106.882 45V120M31.5882 45H-43.706M31.5882 45V120M-43.706 45H-119M-43.706 45V120M-119 45V120M1085.71 120H1161M1085.71 120H1010.41M1085.71 120V195M1161 120V195M1010.41 120H935.118M1010.41 120V195M935.118 120H859.824M935.118 120V195M859.824 120H784.529M859.824 120V195M784.529 120H709.235M784.529 120V195M709.235 120H633.941M709.235 120V195M633.941 120H558.647M633.941 120V195M558.647 120H483.353M558.647 120V195M483.353 120H408.059M483.353 120V195M408.059 120H332.765M408.059 120V195M332.765 120H257.471M332.765 120V195M257.471 120H182.176M257.471 120V195M182.176 120H106.882M182.176 120V195M106.882 120H31.5882M106.882 120V195M31.5882 120H-43.706M31.5882 120V195M-43.706 120H-119M-43.706 120V195M-119 120V195M1085.71 195H1161M1085.71 195H1010.41M1085.71 195V270M1161 195V270M1010.41 195H935.118M1010.41 195V270M935.118 195H859.824M935.118 195V270M859.824 195H784.529M859.824 195V270M784.529 195H709.235M784.529 195V270M709.235 195H633.941M709.235 195V270M633.941 195H558.647M633.941 195V270M558.647 195H483.353M558.647 195V270M483.353 195H408.059M483.353 195V270M408.059 195H332.765M408.059 195V270M332.765 195H257.471M332.765 195V270M257.471 195H182.176M257.471 195V270M182.176 195H106.882M182.176 195V270M106.882 195H31.5882M106.882 195V270M31.5882 195H-43.706M31.5882 195V270M-43.706 195H-119M-43.706 195V270M-119 195V270M1085.71 270H1161M1085.71 270H1010.41M1085.71 270V345M1161 270V345M1010.41 270H935.118M1010.41 270V345M935.118 270H859.824M935.118 270V345M859.824 270H784.529M859.824 270V345M784.529 270H709.235M784.529 270V345M709.235 270H633.941M709.235 270V345M633.941 270H558.647M633.941 270V345M558.647 270H483.353M558.647 270V345M483.353 270H408.059M483.353 270V345M408.059 270H332.765M408.059 270V345M332.765 270H257.471M332.765 270V345M257.471 270H182.176M257.471 270V345M182.176 270H106.882M182.176 270V345M106.882 270H31.5882M106.882 270V345M31.5882 270H-43.706M31.5882 270V345M-43.706 270H-119M-43.706 270V345M-119 270V345M1085.71 345H1161M1085.71 345H1010.41M1085.71 345V420M1161 345V420H1085.71M1010.41 345H935.118M1010.41 345V420M935.118 345H859.824M935.118 345V420M859.824 345H784.529M859.824 345V420M784.529 345H709.235M784.529 345V420M709.235 345H633.941M709.235 345V420M633.941 345H558.647M633.941 345V420M558.647 345H483.353M558.647 345V420M483.353 345H408.059M483.353 345V420M408.059 345H332.765M408.059 345V420M332.765 345H257.471M332.765 345V420M257.471 345H182.176M257.471 345V420M182.176 345H106.882M182.176 345V420M106.882 345H31.5882M106.882 345V420M31.5882 345H-43.706M31.5882 345V420M-43.706 345H-119M-43.706 345V420M-119 345V420H-43.706M1085.71 420H1010.41M1010.41 420H935.118M935.118 420H859.824M859.824 420H784.529M784.529 420H709.235M709.235 420H633.941M633.941 420H558.647M558.647 420H483.353M483.353 420H408.059M408.059 420H332.765M332.765 420H257.471M257.471 420H182.176M182.176 420H106.882M106.882 420H31.5882M31.5882 420H-43.706" stroke="url(#paint1_radial_1784_6703)" stroke-opacity="0.1" stroke-width="2.33347"/>
<defs>
<linearGradient id="paint0_linear_1784_6703" x1="897.468" y1="119.039" x2="897.468" y2="195.962" gradientUnits="userSpaceOnUse">
<stop stop-color="white" stop-opacity="0"/>
<stop offset="1" stop-color="white"/>
</linearGradient>
<radialGradient id="paint1_radial_1784_6703" cx="0" cy="0" r="1" gradientUnits="userSpaceOnUse" gradientTransform="translate(521 -5.96154) rotate(90) scale(425 640.965)">
<stop stop-color="#1DFEFE"/>
<stop offset="1" stop-color="white" stop-opacity="0"/>
</radialGradient>
</defs>
</svg>
