<svg width="21" height="20" viewBox="0 0 21 20" fill="none" xmlns="http://www.w3.org/2000/svg">
<path d="M8.1224 17.6981C8.16227 17.8742 8.31904 17.9996 8.50019 17.9996C8.68135 17.9996 8.83812 17.8742 8.87799 17.6981C9.74854 13.845 10.345 13.2482 14.1985 12.3776C14.375 12.3373 14.5 12.181 14.5 11.9998C14.5 11.8187 14.3746 11.6623 14.1985 11.622C10.345 10.7518 9.74815 10.155 8.87799 6.30154C8.83812 6.12542 8.68135 6 8.50019 6C8.31904 6 8.16227 6.12542 8.1224 6.30154C7.25185 10.155 6.65535 10.7518 2.80193 11.622C2.62542 11.6623 2.5 11.8187 2.5 11.9998C2.5 12.181 2.62542 12.3373 2.80193 12.3776C6.65535 13.2482 7.25185 13.845 8.1224 17.6981ZM8.50019 7.96407C9.20933 10.3942 10.1062 11.2911 12.5363 12.0002C10.1062 12.7093 9.20933 13.6062 8.50019 16.0363C7.79106 13.6066 6.89418 12.7093 4.46407 12.0002C6.89418 11.2911 7.79106 10.3946 8.50019 7.96407Z" fill="white" stroke="white" stroke-width="0.4"/>
<path d="M18.1532 5.56525C15.7971 5.03322 15.4663 4.70243 14.9343 2.34682C14.888 2.1438 14.7081 2 14.4998 2C14.2914 2 14.1116 2.1438 14.0653 2.34682C13.5332 4.70243 13.2024 5.03322 10.8468 5.56525C10.6438 5.61155 10.5 5.79142 10.5 5.99978C10.5 6.20814 10.6438 6.388 10.8468 6.4343C13.2024 6.96633 13.5332 7.29712 14.0653 9.65318C14.1116 9.85575 14.2914 10 14.4998 10C14.7081 10 14.888 9.85575 14.9343 9.65318C15.4663 7.29712 15.7971 6.96633 18.1532 6.4343C18.3558 6.388 18.5 6.20814 18.5 5.99978C18.5 5.79142 18.3558 5.61155 18.1532 5.56525ZM14.4998 7.92532C14.1124 6.91157 13.5884 6.38711 12.5742 5.99978C13.5884 5.61244 14.1124 5.08843 14.4998 4.07424C14.8871 5.08843 15.4116 5.61244 16.4253 5.99978C15.4116 6.38711 14.8871 6.91157 14.4998 7.92532Z" fill="white" stroke="white" stroke-width="0.2"/>
</svg>
