<svg width="20" height="20" viewBox="0 0 20 20" fill="none" xmlns="http://www.w3.org/2000/svg">
<path d="M7.6224 17.6981C7.66227 17.8742 7.81904 17.9996 8.00019 17.9996C8.18135 17.9996 8.33812 17.8742 8.37799 17.6981C9.24854 13.845 9.84504 13.2482 13.6985 12.3776C13.875 12.3373 14 12.181 14 11.9998C14 11.8187 13.8746 11.6623 13.6985 11.622C9.84504 10.7518 9.24815 10.155 8.37799 6.30154C8.33812 6.12542 8.18135 6 8.00019 6C7.81904 6 7.66227 6.12542 7.6224 6.30154C6.75185 10.155 6.15535 10.7518 2.30193 11.622C2.12542 11.6623 2 11.8187 2 11.9998C2 12.181 2.12542 12.3373 2.30193 12.3776C6.15535 13.2482 6.75185 13.845 7.6224 17.6981ZM8.00019 7.96407C8.70933 10.3942 9.60621 11.2911 12.0363 12.0002C9.60621 12.7093 8.70933 13.6062 8.00019 16.0363C7.29106 13.6066 6.39418 12.7093 3.96407 12.0002C6.39418 11.2911 7.29106 10.3946 8.00019 7.96407Z" fill="#5047F5" stroke="#5047F5" stroke-width="0.4"/>
<path d="M17.6532 5.56525C15.2971 5.03322 14.9663 4.70243 14.4343 2.34682C14.388 2.1438 14.2081 2 13.9998 2C13.7914 2 13.6116 2.1438 13.5653 2.34682C13.0332 4.70243 12.7024 5.03322 10.3468 5.56525C10.1438 5.61155 10 5.79142 10 5.99978C10 6.20814 10.1438 6.388 10.3468 6.4343C12.7024 6.96633 13.0332 7.29712 13.5653 9.65318C13.6116 9.85575 13.7914 10 13.9998 10C14.2081 10 14.388 9.85575 14.4343 9.65318C14.9663 7.29712 15.2971 6.96633 17.6532 6.4343C17.8558 6.388 18 6.20814 18 5.99978C18 5.79142 17.8558 5.61155 17.6532 5.56525ZM13.9998 7.92532C13.6124 6.91157 13.0884 6.38711 12.0742 5.99978C13.0884 5.61244 13.6124 5.08843 13.9998 4.07424C14.3871 5.08843 14.9116 5.61244 15.9253 5.99978C14.9116 6.38711 14.3871 6.91157 13.9998 7.92532Z" fill="#5047F5" stroke="#5047F5" stroke-width="0.2"/>
</svg>
