<svg width="20" height="20" viewBox="0 0 20 20" fill="none" xmlns="http://www.w3.org/2000/svg">
<path d="M15.8333 10.8333C16.2936 10.8333 16.6667 10.4602 16.6667 9.99996C16.6667 9.53972 16.2936 9.16663 15.8333 9.16663C15.3731 9.16663 15 9.53972 15 9.99996C15 10.4602 15.3731 10.8333 15.8333 10.8333Z" fill="#0F172A" stroke="#0F172A" stroke-width="1.5" stroke-linecap="round" stroke-linejoin="round"/>
<path d="M9.99935 10.8333C10.4596 10.8333 10.8327 10.4602 10.8327 9.99996C10.8327 9.53972 10.4596 9.16663 9.99935 9.16663C9.53911 9.16663 9.16602 9.53972 9.16602 9.99996C9.16602 10.4602 9.53911 10.8333 9.99935 10.8333Z" fill="#0F172A" stroke="#0F172A" stroke-width="1.5" stroke-linecap="round" stroke-linejoin="round"/>
<path d="M4.16732 10.8333C4.62756 10.8333 5.00065 10.4602 5.00065 9.99996C5.00065 9.53972 4.62756 9.16663 4.16732 9.16663C3.70708 9.16663 3.33398 9.53972 3.33398 9.99996C3.33398 10.4602 3.70708 10.8333 4.16732 10.8333Z" fill="#5047F5" stroke="#0F172A" stroke-width="1.5" stroke-linecap="round" stroke-linejoin="round"/>
</svg>
