<svg width="20" height="20" viewBox="0 0 20 20" fill="none" xmlns="http://www.w3.org/2000/svg">
<path fill-rule="evenodd" clip-rule="evenodd" d="M9.16701 16.6667C9.16701 16.2064 9.54011 15.8333 10.0003 15.8333H17.5003C17.9606 15.8333 18.3337 16.2064 18.3337 16.6667C18.3337 17.1269 17.9606 17.5 17.5003 17.5H10.0003C9.54011 17.5 9.16701 17.1269 9.16701 16.6667Z" fill="#5047F5"/>
<path fill-rule="evenodd" clip-rule="evenodd" d="M15.0003 3.23222C14.7525 3.23222 14.5148 3.33067 14.3396 3.50591L4.08615 13.7594L3.64565 15.5213L5.40763 15.0808L15.6611 4.8274C15.7479 4.74063 15.8167 4.63761 15.8636 4.52424C15.9106 4.41087 15.9348 4.28936 15.9348 4.16665C15.9348 4.04394 15.9106 3.92243 15.8636 3.80906C15.8167 3.69569 15.7479 3.59268 15.6611 3.50591C15.5743 3.41914 15.4713 3.35031 15.3579 3.30335C15.2446 3.25639 15.1231 3.23222 15.0003 3.23222ZM13.1611 2.3274C13.6489 1.8396 14.3105 1.56555 15.0003 1.56555C15.3419 1.56555 15.6802 1.63283 15.9957 1.76355C16.3113 1.89427 16.5981 2.08586 16.8396 2.3274C17.0811 2.56893 17.2727 2.85567 17.4034 3.17125C17.5342 3.48683 17.6014 3.82507 17.6014 4.16665C17.6014 4.50823 17.5342 4.84647 17.4034 5.16205C17.2727 5.47763 17.0811 5.76437 16.8396 6.00591L6.42293 16.4226C6.31613 16.5294 6.18232 16.6051 6.03579 16.6418L2.70246 17.4751C2.41848 17.5461 2.11807 17.4629 1.91109 17.2559C1.7041 17.0489 1.6209 16.7485 1.69189 16.4645L2.52522 13.1312C2.56186 12.9847 2.63762 12.8509 2.74442 12.7441L13.1611 2.3274Z" fill="#5047F5"/>
<path fill-rule="evenodd" clip-rule="evenodd" d="M9.16701 16.6667C9.16701 16.2064 9.54011 15.8333 10.0003 15.8333H17.5003C17.9606 15.8333 18.3337 16.2064 18.3337 16.6667C18.3337 17.1269 17.9606 17.5 17.5003 17.5H10.0003C9.54011 17.5 9.16701 17.1269 9.16701 16.6667Z" stroke="black"/>
<path fill-rule="evenodd" clip-rule="evenodd" d="M15.0003 3.23222C14.7525 3.23222 14.5148 3.33067 14.3396 3.50591L4.08615 13.7594L3.64565 15.5213L5.40763 15.0808L15.6611 4.8274C15.7479 4.74063 15.8167 4.63761 15.8636 4.52424C15.9106 4.41087 15.9348 4.28936 15.9348 4.16665C15.9348 4.04394 15.9106 3.92243 15.8636 3.80906C15.8167 3.69569 15.7479 3.59268 15.6611 3.50591C15.5743 3.41914 15.4713 3.35031 15.3579 3.30335C15.2446 3.25639 15.1231 3.23222 15.0003 3.23222ZM13.1611 2.3274C13.6489 1.8396 14.3105 1.56555 15.0003 1.56555C15.3419 1.56555 15.6802 1.63283 15.9957 1.76355C16.3113 1.89427 16.5981 2.08586 16.8396 2.3274C17.0811 2.56893 17.2727 2.85567 17.4034 3.17125C17.5342 3.48683 17.6014 3.82507 17.6014 4.16665C17.6014 4.50823 17.5342 4.84647 17.4034 5.16205C17.2727 5.47763 17.0811 5.76437 16.8396 6.00591L6.42293 16.4226C6.31613 16.5294 6.18232 16.6051 6.03579 16.6418L2.70246 17.4751C2.41848 17.5461 2.11807 17.4629 1.91109 17.2559C1.7041 17.0489 1.6209 16.7485 1.69189 16.4645L2.52522 13.1312C2.56186 12.9847 2.63762 12.8509 2.74442 12.7441L13.1611 2.3274Z" stroke="black"/>
</svg>
