<svg width="20" height="20" viewBox="0 0 20 20" fill="none" xmlns="http://www.w3.org/2000/svg">
<path d="M4.61666 16.2667C4.10832 16.2667 3.63332 16.0917 3.29166 15.7667C2.85832 15.3584 2.64999 14.7417 2.72499 14.0751L3.03332 11.3751C3.09166 10.8667 3.39999 10.1917 3.75832 9.82505L10.6 2.58338C12.3083 0.775051 14.0917 0.725051 15.9 2.43338C17.7083 4.14172 17.7583 5.92505 16.05 7.73338L9.20832 14.9751C8.85832 15.3501 8.20832 15.7001 7.69999 15.7834L5.01666 16.2417C4.87499 16.2501 4.74999 16.2667 4.61666 16.2667ZM13.275 2.42505C12.6333 2.42505 12.075 2.82505 11.5083 3.42505L4.66666 10.6751C4.49999 10.8501 4.30832 11.2667 4.27499 11.5084L3.96666 14.2084C3.93332 14.4834 3.99999 14.7084 4.14999 14.8501C4.29999 14.9917 4.52499 15.0417 4.79999 15.0001L7.48332 14.5417C7.72499 14.5001 8.12499 14.2834 8.29166 14.1084L15.1333 6.86672C16.1667 5.76672 16.5417 4.75005 15.0333 3.33338C14.3667 2.69172 13.7917 2.42505 13.275 2.42505Z" fill="#0F172A"/>
<path d="M14.4504 9.12488C14.4338 9.12488 14.4088 9.12488 14.3921 9.12488C11.7921 8.86655 9.70044 6.89155 9.30044 4.30822C9.25044 3.96655 9.48378 3.64988 9.82544 3.59155C10.1671 3.54155 10.4838 3.77488 10.5421 4.11655C10.8588 6.13322 12.4921 7.68322 14.5254 7.88322C14.8671 7.91655 15.1171 8.22488 15.0838 8.56655C15.0421 8.88322 14.7671 9.12488 14.4504 9.12488Z" fill="#0F172A"/>
<path d="M17.5 18.9583H2.5C2.15833 18.9583 1.875 18.675 1.875 18.3333C1.875 17.9917 2.15833 17.7083 2.5 17.7083H17.5C17.8417 17.7083 18.125 17.9917 18.125 18.3333C18.125 18.675 17.8417 18.9583 17.5 18.9583Z" fill="#0F172A"/>
</svg>
