<svg viewBox="0 0 145 24" fill="none" xmlns="http://www.w3.org/2000/svg">
        <path d="M19.4708 17.6132H0L8.116 2.7876H11.3596L19.4708 17.6132Z" fill="#1FFF69" />
        <path d="M21.0946 20.5762H9.73975V24H21.0946V20.5762Z" fill="#1FFF69" />
        <path d="M19.4708 17.6132H0L8.116 2.7876H11.3596L19.4708 17.6132Z" fill="#1FFF69" />
        <path d="M19.4708 17.6132H0L8.116 2.7876H11.3596L19.4708 17.6132Z" fill="#1FFF69" />
        <path d="M41.3303 14.56C40.8771 16.7824 39.1254 17.9839 36.4909 17.9839C33.4032 17.9839 31.5666 16.336 31.5666 13.3348C31.5666 10.3336 33.4032 8.71427 36.4909 8.71427C37.6335 8.71427 38.6108 8.93746 39.3851 9.3791L41.4011 6.77678C39.9942 6.02172 38.3039 5.63232 36.4909 5.63232C31.2313 5.63232 27.7517 8.38661 27.7517 13.3348C27.7517 18.283 31.2361 21.0991 36.4909 21.0991C41.0093 21.0991 44.2339 19.0476 45.0507 15.3198L41.3303 14.56Z" fill={fillText} />
        <path d="M55.7353 5.63232C60.5464 5.63232 64.5076 8.38661 64.5076 13.3301C64.5076 18.2735 60.9949 21.0943 55.7353 21.0943C50.4757 21.0943 46.9961 18.3068 46.9961 13.3301C46.9961 8.35337 50.4757 5.63232 55.7353 5.63232ZM55.7353 17.9839C58.8231 17.9839 60.688 16.336 60.688 13.3348C60.688 10.3336 58.8184 8.71427 55.7353 8.71427C52.6523 8.71427 50.8109 10.3621 50.8109 13.3348C50.8109 16.3075 52.6475 17.9839 55.7353 17.9839Z" fill={fillText} />
        <path d="M70.6362 6.14019L69.8713 10.0294L70.4851 10.2431C71.1649 7.57432 73.6012 5.48486 77.0005 5.48486C80.6785 5.48486 83.5207 8.06344 83.5207 11.3781V20.6524H79.7011V11.7247C79.7011 9.92971 77.9259 8.74726 75.3292 8.74726C72.7324 8.74726 70.8439 9.98669 70.8439 11.7912V20.6572H67.0574V6.14019H70.6362Z" fill={fillText} />
        <path d="M94.1017 21.1893C89.8194 21.1893 86.7647 19.3895 85.9668 16.393L89.5975 15.8754C90.2538 17.4378 91.8921 18.321 94.1347 18.321C96.1035 18.321 97.4822 17.6372 97.4822 16.6542C97.4822 15.6712 96.1602 15.1394 93.3321 14.9257C88.4644 14.5363 86.1604 13.0594 86.1604 10.3336C86.1604 7.39887 88.8421 5.63232 93.2991 5.63232C97.4302 5.63232 100.093 7.15193 101.165 10.1247L97.5058 10.8512C96.8353 9.27938 95.3953 8.50058 93.148 8.50058C91.1839 8.50058 89.9705 9.08943 89.9705 10.0487C89.9705 11.0744 91.3775 11.6585 94.3472 11.8675C99.0969 12.2046 101.325 13.6197 101.325 16.2886C101.325 19.2803 98.5114 21.1845 94.1064 21.1845L94.1017 21.1893Z" fill={fillText} />
        <path d="M105.697 0C106.891 0 107.887 1.00199 107.887 2.20343C107.887 3.40486 106.891 4.4401 105.697 4.4401C104.502 4.4401 103.506 3.38587 103.506 2.20343C103.506 1.02098 104.502 0 105.697 0ZM107.637 6.14015V20.6571H103.851V6.14015H107.637Z" fill={fillText} />
        <path d="M124.694 6.14014V10.6325L116.234 16.1933L113.788 17.0623V17.4849H124.69V20.6571H110.186V15.8276L118.51 10.3333L121.007 9.69696V9.28857H110.186V6.14489H124.69L124.694 6.14014Z" fill={fillText} />
        <path d="M135.601 17.9839C138.104 17.9839 139.879 17.1053 140.337 15.6665L144.029 16.2268C143.108 19.2803 139.888 21.0943 135.601 21.0943C129.955 21.0943 126.513 18.1548 126.513 13.3301C126.513 8.50533 129.827 5.63232 135.252 5.63232C140.677 5.63232 144.024 8.72377 144.024 13.1401V14.408H130.361C130.62 16.6922 132.499 17.9839 135.597 17.9839H135.601ZM140.181 11.8152C140.181 10.0249 138.094 8.71427 135.257 8.71427C132.419 8.71427 130.814 9.82548 130.427 11.8152H140.181Z" fill={fillText} />
      </svg>