<svg width="100" height="100" viewBox="0 0 100 100" fill="none" xmlns="http://www.w3.org/2000/svg">
<rect width="100" height="100" rx="50" fill="#F1F5F9"/>
<path fill-rule="evenodd" clip-rule="evenodd" d="M68.0588 48H53.9412C49.5554 48 46 51.5806 46 55.9974V59.8944C46 64.3112 49.5554 67.8918 53.9412 67.8918H68.8457L73.4078 71.6398C74.0875 72.1982 75.088 72.096 75.6424 71.4115C75.8737 71.126 76 70.7689 76 70.4004V55.9974C76 51.5806 72.4446 48 68.0588 48Z" fill="#64748B" fill-opacity="0.4"/>
<path fill-rule="evenodd" clip-rule="evenodd" d="M35.1431 28H60.8569C67.0111 28 72 33.1268 72 39.4509V49.7423C72 56.0665 67.0111 61.1932 60.8569 61.1932H35.4469L28.2182 67.387C27.1274 68.3216 25.5059 68.1705 24.5965 67.0496C24.2111 66.5746 24 65.9758 24 65.3574V39.4509C24 33.1268 28.9889 28 35.1431 28Z" fill="#F1F5F9"/>
<path d="M35.4469 60.1932H35.0771L34.7963 60.4339L27.5676 66.6276C26.9078 67.1929 25.9309 67.1072 25.373 66.4195C25.1339 66.1249 25 65.7491 25 65.3574V39.4509C25 33.6532 29.5667 29 35.1431 29H60.8569C66.4333 29 71 33.6532 71 39.4509V49.7423C71 55.5401 66.4333 60.1932 60.8569 60.1932H35.4469Z" stroke="#64748B" stroke-opacity="0.4" stroke-width="2"/>
</svg>
