<svg width="20" height="20" viewBox="0 0 20 20" fill="none" xmlns="http://www.w3.org/2000/svg">
<path d="M17.4998 5.6083C17.4831 5.6083 17.4581 5.6083 17.4331 5.6083C13.0248 5.16664 8.62481 4.99997 4.26647 5.44164L2.56647 5.6083C2.21647 5.64164 1.90814 5.39164 1.87481 5.04164C1.84147 4.69164 2.09147 4.39164 2.43314 4.3583L4.13314 4.19164C8.56647 3.74164 13.0581 3.91664 17.5581 4.3583C17.8998 4.39164 18.1498 4.69997 18.1165 5.04164C18.0915 5.36664 17.8165 5.6083 17.4998 5.6083Z" fill="#0F172A"/>
<path d="M7.08314 4.76666C7.0498 4.76666 7.01647 4.76666 6.9748 4.75832C6.64147 4.69999 6.40814 4.37499 6.46647 4.04166L6.6498 2.94999C6.78314 2.14999 6.96647 1.04166 8.90814 1.04166H11.0915C13.0415 1.04166 13.2248 2.19166 13.3498 2.95832L13.5331 4.04166C13.5915 4.38332 13.3581 4.70832 13.0248 4.75832C12.6831 4.81666 12.3581 4.58332 12.3081 4.24999L12.1248 3.16666C12.0081 2.44166 11.9831 2.29999 11.0998 2.29999H8.91647C8.03314 2.29999 8.01647 2.41666 7.89147 3.15832L7.6998 4.24166C7.6498 4.54999 7.38314 4.76666 7.08314 4.76666Z" fill="#0F172A"/>
<path d="M12.6752 18.9584H7.32524C4.41691 18.9584 4.30024 17.3501 4.20857 16.0501L3.66691 7.6584C3.64191 7.31673 3.90857 7.01673 4.25024 6.99173C4.60024 6.97506 4.89191 7.2334 4.91691 7.57506L5.45857 15.9667C5.55024 17.2334 5.58357 17.7084 7.32524 17.7084H12.6752C14.4252 17.7084 14.4586 17.2334 14.5419 15.9667L15.0836 7.57506C15.1086 7.2334 15.4086 6.97506 15.7502 6.99173C16.0919 7.01673 16.3586 7.3084 16.3336 7.6584L15.7919 16.0501C15.7002 17.3501 15.5836 18.9584 12.6752 18.9584Z" fill="#0F172A"/>
<path d="M11.3834 14.375H8.6084C8.26673 14.375 7.9834 14.0917 7.9834 13.75C7.9834 13.4083 8.26673 13.125 8.6084 13.125H11.3834C11.7251 13.125 12.0084 13.4083 12.0084 13.75C12.0084 14.0917 11.7251 14.375 11.3834 14.375Z" fill="#0F172A"/>
<path d="M12.0834 11.0417H7.91675C7.57508 11.0417 7.29175 10.7583 7.29175 10.4167C7.29175 10.075 7.57508 9.79166 7.91675 9.79166H12.0834C12.4251 9.79166 12.7084 10.075 12.7084 10.4167C12.7084 10.7583 12.4251 11.0417 12.0834 11.0417Z" fill="#0F172A"/>
</svg>
